<svg xmlns="http://www.w3.org/2000/svg" width="768" viewBox="0 0 768 768" height="768" version="1.0"><defs><clipPath id="a"><path d="M 19.726562 15.894531 L 532 15.894531 L 532 528 L 19.726562 528 Z M 19.726562 15.894531"/></clipPath><clipPath id="b"><path d="M 396 392 L 753.976562 392 L 753.976562 750 L 396 750 Z M 396 392"/></clipPath></defs><g clip-path="url(#a)"><path fill="#151516" d="M 120.023438 427.214844 C 34.269531 341.464844 34.269531 201.9375 120.023438 116.1875 C 205.769531 30.4375 345.300781 30.4375 431.046875 116.1875 C 516.796875 201.9375 516.796875 341.464844 431.046875 427.214844 C 388.175781 470.089844 331.855469 491.53125 275.53125 491.53125 C 219.214844 491.53125 162.894531 470.089844 120.023438 427.214844 Z M 392.953125 498.933594 C 394.523438 498.128906 396.078125 497.277344 397.625 496.433594 C 399.617188 495.359375 401.59375 494.269531 403.550781 493.132812 C 405.113281 492.234375 406.65625 491.308594 408.191406 490.375 C 410.140625 489.191406 412.074219 487.984375 413.996094 486.753906 C 415.484375 485.792969 416.957031 484.824219 418.421875 483.835938 C 420.375 482.523438 422.304688 481.171875 424.222656 479.796875 C 425.613281 478.804688 427.003906 477.8125 428.375 476.785156 C 430.359375 475.308594 432.316406 473.769531 434.273438 472.222656 C 435.527344 471.222656 436.796875 470.242188 438.035156 469.222656 C 440.144531 467.488281 442.207031 465.683594 444.273438 463.875 C 445.316406 462.957031 446.378906 462.070312 447.402344 461.132812 C 450.320312 458.488281 453.1875 455.761719 456.007812 452.957031 C 456.140625 452.828125 456.273438 452.707031 456.40625 452.574219 C 456.542969 452.441406 456.671875 452.292969 456.808594 452.15625 C 459.605469 449.347656 462.324219 446.484375 464.960938 443.578125 C 465.90625 442.542969 466.800781 441.464844 467.726562 440.410156 C 469.53125 438.359375 471.324219 436.304688 473.046875 434.210938 C 474.074219 432.96875 475.066406 431.691406 476.070312 430.425781 C 477.613281 428.480469 479.140625 426.523438 480.621094 424.542969 C 481.640625 423.175781 482.632812 421.785156 483.632812 420.394531 C 485.007812 418.472656 486.359375 416.539062 487.671875 414.589844 C 488.660156 413.125 489.628906 411.648438 490.585938 410.164062 C 491.820312 408.238281 493.027344 406.304688 494.210938 404.355469 C 495.136719 402.824219 496.0625 401.28125 496.964844 399.726562 C 498.097656 397.765625 499.195312 395.78125 500.269531 393.789062 C 501.113281 392.242188 501.957031 390.6875 502.769531 389.117188 C 503.878906 386.980469 504.917969 384.820312 505.960938 382.660156 C 506.644531 381.238281 507.347656 379.824219 508.007812 378.386719 C 551.214844 283.960938 534.03125 168.453125 456.40625 90.828125 C 408.09375 42.515625 343.859375 15.910156 275.53125 15.910156 C 207.207031 15.910156 142.976562 42.515625 94.664062 90.828125 C 46.347656 139.140625 19.742188 203.378906 19.742188 271.703125 C 19.742188 340.03125 46.347656 404.265625 94.664062 452.574219 C 172.292969 530.207031 287.8125 547.382812 382.238281 504.164062 C 383.65625 503.511719 385.050781 502.824219 386.453125 502.148438 C 388.628906 501.101562 390.796875 500.046875 392.953125 498.933594"/></g><path fill="#151516" d="M 410.238281 168.765625 L 347.476562 168.765625 L 347.476562 359.746094 L 410.238281 359.746094 L 410.238281 168.765625"/><path fill="#151516" d="M 130.847656 359.746094 L 193.609375 359.746094 L 193.609375 283.5 L 130.847656 283.5 L 130.847656 359.746094"/><g clip-path="url(#b)"><path fill="#151516" d="M 510.179688 406.761719 C 509.46875 408.003906 508.765625 409.246094 508.035156 410.480469 C 506.226562 413.5 504.363281 416.484375 502.449219 419.429688 C 502.128906 419.917969 501.832031 420.421875 501.511719 420.90625 C 499.25 424.335938 496.886719 427.695312 494.472656 431.019531 C 493.753906 432.007812 492.996094 432.980469 492.257812 433.960938 C 490.476562 436.335938 488.664062 438.6875 486.800781 441.011719 C 485.898438 442.132812 484.988281 443.246094 484.066406 444.359375 C 482.203125 446.605469 480.289062 448.824219 478.347656 451.015625 C 477.464844 452.015625 476.601562 453.015625 475.703125 454 C 472.9375 457.03125 470.125 460.019531 467.214844 462.929688 L 466.996094 463.164062 L 466.773438 463.371094 C 463.847656 466.289062 460.855469 469.121094 457.8125 471.890625 C 456.851562 472.765625 455.871094 473.613281 454.902344 474.472656 C 452.675781 476.449219 450.425781 478.382812 448.140625 480.277344 C 447.058594 481.171875 445.976562 482.058594 444.882812 482.9375 C 442.523438 484.828125 440.128906 486.671875 437.714844 488.488281 C 436.769531 489.195312 435.832031 489.921875 434.878906 490.621094 C 431.542969 493.050781 428.160156 495.425781 424.714844 497.699219 C 424.289062 497.976562 423.859375 498.230469 423.433594 498.503906 C 420.429688 500.46875 417.378906 502.371094 414.292969 504.214844 C 413.078125 504.933594 411.851562 505.625 410.628906 506.328125 C 408.269531 507.6875 405.890625 509.019531 403.488281 510.304688 C 402.160156 511.011719 400.832031 511.714844 399.496094 512.402344 C 398.546875 512.890625 397.621094 513.40625 396.671875 513.886719 L 429.328125 546.542969 C 433.445312 550.65625 440.613281 550.65625 444.738281 546.542969 L 456.210938 535.070312 L 456.25 535.039062 L 456.265625 535.015625 L 498.152344 494.011719 C 501.109375 491.117188 505.839844 491.164062 508.738281 494.121094 C 511.632812 497.074219 511.578125 501.816406 508.628906 504.710938 L 471.679688 540.878906 L 625.480469 725.21875 C 638.890625 740.253906 657.582031 748.957031 677.964844 749.539062 C 698.367188 750.160156 717.507812 742.503906 731.925781 728.089844 C 746.339844 713.671875 753.960938 694.511719 753.371094 674.128906 C 752.792969 653.792969 744.121094 635.128906 728.957031 621.570312 L 544.707031 467.84375 L 530.890625 481.960938 C 529.429688 483.460938 527.484375 484.214844 525.542969 484.214844 C 523.65625 484.214844 521.761719 483.5 520.308594 482.074219 C 517.351562 479.179688 517.304688 474.441406 520.191406 471.484375 L 538.847656 452.429688 L 538.875 452.414062 L 538.90625 452.375 L 550.375 440.902344 C 552.433594 438.847656 553.570312 436.109375 553.570312 433.203125 C 553.570312 430.289062 552.433594 427.558594 550.375 425.496094 L 517.71875 392.835938 C 517.242188 393.785156 516.726562 394.707031 516.246094 395.644531 C 515.550781 396.996094 514.84375 398.335938 514.125 399.679688 C 512.847656 402.0625 511.527344 404.417969 510.179688 406.761719"/></g><path fill="#151516" d="M 239.160156 359.746094 L 301.921875 359.746094 L 301.921875 240.660156 L 239.160156 240.660156 L 239.160156 359.746094"/></svg>