<svg id="Layer_1" data-name="Layer 1" xmlns="http://www.w3.org/2000/svg" xmlns:xlink="http://www.w3.org/1999/xlink" viewBox="0 0 1920 878"><defs><style>.cls-1{mask:url(#mask);filter:url(#luminosity-noclip-4);}.cls-2,.cls-4,.cls-6{mix-blend-mode:multiply;}.cls-2{fill:url(#linear-gradient);}.cls-3{mask:url(#mask-2);filter:url(#luminosity-noclip-5);}.cls-4{fill:url(#linear-gradient-2);}.cls-5{mask:url(#mask-3);filter:url(#luminosity-noclip-6);}.cls-6{fill:url(#linear-gradient-3);}.cls-7{fill:#131313;}.cls-8{mask:url(#mask-4);}.cls-11,.cls-13,.cls-9{opacity:0.2;}.cls-9{fill:url(#linear-gradient-4);}.cls-10{mask:url(#mask-5);}.cls-11{fill:url(#linear-gradient-5);}.cls-12{mask:url(#mask-6);}.cls-13{fill:url(#linear-gradient-6);}.cls-14{filter:url(#luminosity-noclip-3);}.cls-15{filter:url(#luminosity-noclip-2);}.cls-16{filter:url(#luminosity-noclip);}</style><filter id="luminosity-noclip" x="1307.78" y="-8641" width="656.98" height="32766" filterUnits="userSpaceOnUse" color-interpolation-filters="sRGB"><feFlood flood-color="#fff" result="bg"/><feBlend in="SourceGraphic" in2="bg"/></filter><mask id="mask" x="1307.78" y="-8641" width="656.98" height="32766" maskUnits="userSpaceOnUse"><g class="cls-16"/></mask><linearGradient id="linear-gradient" x1="1182.09" y1="-688.43" x2="638.35" y2="-144.69" gradientTransform="matrix(0, -1, -1, 0, 1123.12, 1772.88)" gradientUnits="userSpaceOnUse"><stop offset="0" stop-color="#fff"/><stop offset="1"/></linearGradient><filter id="luminosity-noclip-2" x="-44.32" y="-8641" width="656.98" height="32766" filterUnits="userSpaceOnUse" color-interpolation-filters="sRGB"><feFlood flood-color="#fff" result="bg"/><feBlend in="SourceGraphic" in2="bg"/></filter><mask id="mask-2" x="-44.32" y="-8641" width="656.98" height="32766" maskUnits="userSpaceOnUse"><g class="cls-15"/></mask><linearGradient id="linear-gradient-2" x1="1335.3" y1="506.46" x2="1335.3" y2="1290.37" xlink:href="#linear-gradient"/><filter id="luminosity-noclip-3" x="-44.32" y="-8641" width="1352.1" height="32766" filterUnits="userSpaceOnUse" color-interpolation-filters="sRGB"><feFlood flood-color="#fff" result="bg"/><feBlend in="SourceGraphic" in2="bg"/></filter><mask id="mask-3" x="-44.32" y="-8641" width="1352.1" height="32766" maskUnits="userSpaceOnUse"><g class="cls-14"/></mask><linearGradient id="linear-gradient-3" x1="26.11" y1="1024.14" x2="1081.4" y2="187.33" gradientTransform="translate(1123.12 -225.12) rotate(90)" xlink:href="#linear-gradient"/><filter id="luminosity-noclip-4" x="1307.78" y="-20.07" width="656.98" height="913.03" filterUnits="userSpaceOnUse" color-interpolation-filters="sRGB"><feFlood flood-color="#fff" result="bg"/><feBlend in="SourceGraphic" in2="bg"/></filter><mask id="mask-4" x="1307.78" y="-20.07" width="656.98" height="913.03" maskUnits="userSpaceOnUse"><g class="cls-1"><polygon class="cls-2" points="1964.76 892.96 1964.76 -17.8 1307.78 892.96 1964.76 892.96"/></g></mask><linearGradient id="linear-gradient-4" x1="1183.24" y1="-688.45" x2="638.71" y2="-143.92" gradientTransform="matrix(0, -1, -1, 0, 1123.12, 1772.88)" gradientUnits="userSpaceOnUse"><stop offset="0" stop-color="#00f7ff"/><stop offset="1" stop-color="#131313"/></linearGradient><filter id="luminosity-noclip-5" x="-44.32" y="-17.8" width="656.98" height="910.76" filterUnits="userSpaceOnUse" color-interpolation-filters="sRGB"><feFlood flood-color="#fff" result="bg"/><feBlend in="SourceGraphic" in2="bg"/></filter><mask id="mask-5" x="-44.32" y="-17.8" width="656.98" height="910.76" maskUnits="userSpaceOnUse"><g class="cls-3"><polygon class="cls-4" points="612.66 892.96 -44.32 -17.8 -44.32 892.96 612.66 892.96"/></g></mask><linearGradient id="linear-gradient-5" x1="1335.3" y1="506.46" x2="1335.3" y2="1290.37" xlink:href="#linear-gradient-4"/><filter id="luminosity-noclip-6" x="-44.32" y="-17.8" width="1352.1" height="910.76" filterUnits="userSpaceOnUse" color-interpolation-filters="sRGB"><feFlood flood-color="#fff" result="bg"/><feBlend in="SourceGraphic" in2="bg"/></filter><mask id="mask-6" x="-44.32" y="-17.8" width="1352.1" height="910.76" maskUnits="userSpaceOnUse"><g class="cls-5"><polygon class="cls-6" points="1307.78 892.96 594.88 -17.8 -44.32 -17.8 612.66 892.96 1307.78 892.96"/></g></mask><linearGradient id="linear-gradient-6" x1="26.11" y1="1024.14" x2="1081.4" y2="187.33" gradientTransform="translate(1123.12 -225.12) rotate(90)" xlink:href="#linear-gradient-4"/></defs><polygon class="cls-7" points="-38.08 892.96 -38.08 -17.8 1971 -20.07 1971 892.96 -38.08 892.96"/><g class="cls-8"><polygon class="cls-9" points="1964.76 892.96 1964.76 -20.07 1307.78 892.96 1964.76 892.96"/></g><g class="cls-10"><polygon class="cls-11" points="612.66 892.96 -44.32 -17.8 -44.32 892.96 612.66 892.96"/></g><g class="cls-12"><polygon class="cls-13" points="1307.78 892.96 594.88 -17.8 -44.32 -17.8 612.66 892.96 1307.78 892.96"/></g></svg>