<svg id="Layer_1" data-name="Layer 1" xmlns="http://www.w3.org/2000/svg" viewBox="0 0 51 51"><defs><style>.cls-1{fill:#4f46e5;}.cls-2{fill:#fff;}</style></defs><rect class="cls-1" width="51" height="51" rx="8.39"/><path class="cls-2" d="M25,36.6V34.33c0-.56,0-1.12,0-1.68a.53.53,0,0,0-.22-.36l-5-2.6a.45.45,0,0,0-.34,0c-1.09.56-2.18,1.14-3.27,1.71l0,.05c.28,1.64-.33,2.82-1.66,3.27a2.59,2.59,0,0,1-2.39-4.51,2.63,2.63,0,0,1,3.56.38l2.07-1.08c.39-.21.79-.4,1.17-.62a.52.52,0,0,0,.22-.36c0-2,0-4,0-6a.4.4,0,0,0-.24-.4l-3.25-1.68a2.65,2.65,0,0,1-2.31.89,2.53,2.53,0,0,1-1.54-.75,2.61,2.61,0,0,1,2.82-4.26c1.27.51,1.82,1.68,1.52,3.29l1.71.9c.51.26,1,.53,1.52.77a.53.53,0,0,0,.46,0q2.49-1.27,5-2.58a.47.47,0,0,0,.22-.32c0-1.3,0-2.6,0-3.9,0,0,0-.06,0-.09-1.56-.55-2.3-1.65-2.05-3a2.59,2.59,0,0,1,5.12.16A2.64,2.64,0,0,1,26,14.39v1.8c0,.72,0,1.43,0,2.15a.47.47,0,0,0,.21.36q2.49,1.32,5,2.61a.51.51,0,0,0,.31.05l3.36-1.74c-.26-1.73.33-2.88,1.68-3.32a2.58,2.58,0,1,1-1.19,4.14c-.85.44-1.68.95-2.57,1.32a1.35,1.35,0,0,0-.93,1.53c.07,1.71,0,3.42,0,5.13a.44.44,0,0,0,.27.47c1.07.54,2.12,1.1,3.21,1.67a2.6,2.6,0,0,1,2.25-.89,2.51,2.51,0,0,1,1.53.69,2.59,2.59,0,0,1-2.71,4.3c-1.28-.49-1.83-1.65-1.56-3.28l-2.29-1.19c-.39-.2-.79-.54-1.19-.54s-.77.34-1.15.54q-2,1-4,2.09c-.11.06-.24.2-.24.3,0,1.34,0,2.67,0,4A2.6,2.6,0,0,1,27.84,38,2.49,2.49,0,0,1,28,39.8a2.59,2.59,0,0,1-5.09-.34A2.66,2.66,0,0,1,25,36.6ZM20.13,22.77a.67.67,0,0,0,0,.17c0,1.86,0,3.73,0,5.6a.5.5,0,0,0,.25.34c1.47.78,2.94,1.54,4.42,2.31l.26.1v-.24c0-1.84,0-3.69,0-5.53a.46.46,0,0,0-.23-.32l-3.81-2Zm10.8,0-.18.06c-1.52.8-3,1.6-4.57,2.38-.19.1-.18.23-.18.39v5.67a.3.3,0,0,0,.12,0l4.63-2.41a.48.48,0,0,0,.18-.35c0-1,0-1.94,0-2.9ZM20.66,22c1.38.72,2.73,1.37,4,2.11a1.46,1.46,0,0,0,1.69,0c1.29-.74,2.63-1.39,4-2.09l-.12-.1-4.55-2.36a.52.52,0,0,0-.4,0c-.69.34-1.37.71-2.06,1.06Zm4.84-8.5a1.64,1.64,0,1,0-1.62-1.63A1.64,1.64,0,0,0,25.5,13.46ZM13.66,20.39A1.63,1.63,0,1,0,12,18.75,1.63,1.63,0,0,0,13.66,20.39Zm23.68-3.25A1.63,1.63,0,1,0,39,18.74,1.62,1.62,0,0,0,37.34,17.14ZM13.69,33.86A1.63,1.63,0,1,0,12,32.25,1.63,1.63,0,0,0,13.69,33.86Zm13.46,5.29a1.64,1.64,0,0,0-3.27,0,1.64,1.64,0,1,0,3.27,0Zm10.22-5.29a1.63,1.63,0,1,0-1.65-1.6A1.62,1.62,0,0,0,37.37,33.86Z"/></svg>