<svg id="Layer_1" data-name="Layer 1" xmlns="http://www.w3.org/2000/svg" viewBox="0 0 51 51"><defs><style>.cls-1{fill:#4f46e5;}.cls-2{fill:#fff;}</style></defs><rect class="cls-1" width="51" height="51" rx="8.39"/><path class="cls-2" d="M18.64,40.17a.9.9,0,0,1-.51-1.35c.41-1.08.84-2.17,1.25-3.26a5.41,5.41,0,0,1,1.23-1.9Q28,26.3,35.34,18.93a2.77,2.77,0,0,1,3.32-.62,2.74,2.74,0,0,1,.82,4.24c-.15.18-.32.34-.48.5l-4.13,4.13c-.31.31-.55.35-.76.14s-.15-.44.14-.74l1.17-1.17s0,0,0,0l-1-1L23.17,35.68l1,1a1.64,1.64,0,0,1,.17-.26l8.14-8.15c.33-.33.57-.37.78-.16s.16.44-.16.76c-2.68,2.68-5.39,5.34-8,8.05a8.06,8.06,0,0,1-3.29,2.14c-.94.31-1.85.71-2.77,1.07ZM32.85,22.74,21.55,34l.95.94L33.79,23.68Zm4.61.61c.45-.45.92-.88,1.35-1.34a1.86,1.86,0,0,0,0-2.48,1.8,1.8,0,0,0-2.43-.36,19.44,19.44,0,0,0-1.63,1.5ZM20.83,34.71a6,6,0,0,0-.9,1.84c0,.05,0,.15.09.21q.42.43.87.87c.21.21.41.54.66.59s.58-.16.85-.29.73-.38,1.08-.57ZM36.79,24l-2.63-2.63L33.5,22l2.61,2.63ZM18.86,39.3l1.72-.66-1-1.08Z"/><path class="cls-2" d="M10.85,17.65l0-.07a.41.41,0,0,1,.48-.31.43.43,0,0,1,.36.48c0,.88,0,1.76,0,2.63a1.8,1.8,0,0,0,1.33,1.82,2.88,2.88,0,0,0,.65.07c2.45,0,4.89,0,7.34,0a1.76,1.76,0,0,1,1.13.37c.8.62,1.62,1.21,2.44,1.81.06.05.12.08.24.16-.17-.5-.33-.94-.47-1.38s0-.9.62-1a1.8,1.8,0,0,0,1.73-1.88V13.57a1.8,1.8,0,0,0-1.9-1.88H13.64a1.81,1.81,0,0,0-1.91,1.91c0,.63,0,1.27,0,1.91,0,.27,0,.52-.34.58s-.45-.13-.54-.39V13.41c0-.18.06-.35.1-.53a2.63,2.63,0,0,1,2.55-2H25a2.59,2.59,0,0,1,2.6,2.53c0,2.4,0,4.81,0,7.21a2.58,2.58,0,0,1-2,2.46l-.32.09.66,1.93.07.22a.52.52,0,0,1-.18.64.53.53,0,0,1-.68,0l-1.68-1.24c-.6-.45-1.19-.9-1.8-1.33a1.08,1.08,0,0,0-.57-.19H13.66A2.68,2.68,0,0,1,10.93,21c0-.17-.06-.34-.08-.5Z"/><path class="cls-2" d="M19.24,16.26h4.81a1.27,1.27,0,0,1,.34,0c.2,0,.35.18.32.37a1,1,0,0,1-.27.42c-.05.06-.18.05-.27.05H14.32a.9.9,0,0,1-.28,0,.38.38,0,0,1-.28-.44.38.38,0,0,1,.33-.37,1.71,1.71,0,0,1,.32,0Z"/><path class="cls-2" d="M19.24,19.56H14.09a.42.42,0,0,1-.05-.81,1.1,1.1,0,0,1,.31,0h9.76a1.32,1.32,0,0,1,.28,0,.42.42,0,0,1,0,.83H19.24Z"/><path class="cls-2" d="M21.36,13.81h2.81c.37,0,.55.14.55.42s-.19.44-.55.44H18.5c-.32,0-.5-.17-.5-.44s.18-.42.5-.42Z"/></svg>