<svg id="Layer_1" data-name="Layer 1" xmlns="http://www.w3.org/2000/svg" viewBox="0 0 51 51"><defs><style>.cls-1{fill:#4f46e5;}.cls-2{fill:#fff;}</style></defs><rect class="cls-1" width="51" height="51" rx="8.39"/><path class="cls-2" d="M36.79,19.39c.82,0,1.61,0,2.4,0A.69.69,0,0,1,40,20c.27,1,.54,2.07.83,3.09a.67.67,0,0,1-.35.87c-.57.33-1.13.69-1.71,1a.48.48,0,0,0-.28.67c.61,2.21,1.2,4.42,1.79,6.64a2,2,0,0,1-1.14,2.47,2,2,0,0,1-2.51-.82,2.74,2.74,0,0,1-.31-.84,1.09,1.09,0,0,0-.64-.79,17,17,0,0,0-6.43-1.79,25.32,25.32,0,0,0-8.66.88l-.25.09.42.74,2.7,4.66a2.21,2.21,0,1,1-3.82,2.2q-1.73-3-3.43-5.92l-.23-.38a12.53,12.53,0,0,1-2.38,0,4.38,4.38,0,0,1-3.39-4.33,4.3,4.3,0,0,1,3.28-4.26c2.38-.65,4.79-1.22,7.14-2a19.85,19.85,0,0,0,8.88-5.71c.54-.61,1-1.31,1.47-2a1,1,0,0,0,.12-.84A4.08,4.08,0,0,1,31,12.19a1.93,1.93,0,0,1,1.94-1.49,2,2,0,0,1,2,1.55c.52,1.9,1,3.8,1.53,5.7C36.52,18.42,36.65,18.88,36.79,19.39ZM35.71,31C34.33,25.84,33,20.77,31.58,15.62c-2.79,3.89-6.62,6.16-11,7.75l1.72,6.4C26.88,29,31.33,29,35.71,31Zm-14.5-1-1.69-6.29L18,24.13c-1.48.38-3,.73-4.43,1.14a3.29,3.29,0,0,0,1.62,6.37C17.2,31.13,19.17,30.56,21.21,30Zm18,2.78c0-.11-.06-.28-.11-.44L34.76,16.22c-.33-1.23-.66-2.46-1-3.69a.85.85,0,0,0-.75-.68.76.76,0,0,0-.86.44,1.57,1.57,0,0,0,0,.86q2.3,8.62,4.62,17.26c.24.89.47,1.79.73,2.68a.88.88,0,0,0,1,.65A.93.93,0,0,0,39.19,32.78ZM17,32.34c1.26,2.16,2.47,4.27,3.71,6.36a1,1,0,0,0,1.42.29,1,1,0,0,0,.34-1.45c-1-1.86-2.13-3.7-3.21-5.55a.48.48,0,0,0-.4-.17C18.28,32,17.7,32.14,17,32.34ZM38,24c.5-.3.95-.55,1.39-.83a.4.4,0,0,0,.13-.33c-.18-.71-.37-1.42-.58-2.13,0-.09-.15-.22-.23-.22-.53,0-1.06,0-1.65,0Z"/></svg>