<svg id="Layer_1" data-name="Layer 1" xmlns="http://www.w3.org/2000/svg" viewBox="0 0 51 51"><defs><style>.cls-1{fill:#4f46e5;}.cls-2{fill:#fff;}</style></defs><rect class="cls-1" width="51" height="51" rx="8.39"/><path class="cls-2" d="M20.25,14.83l-.13.31a2.08,2.08,0,1,1-2.31-2.86,2,2,0,0,1,2.3,1.22.42.42,0,0,0,.48.3c.47,0,.93,0,1.4,0a.28.28,0,0,0,.33-.25c.27-1,.56-2,.84-3,.12-.43.22-.5.68-.56a16.44,16.44,0,0,1,4.32,0,.72.72,0,0,1,.68.57c.3,1,.64,2,.94,3a.49.49,0,0,0,.33.35A12.34,12.34,0,0,1,34,16.16a.53.53,0,0,0,.4.1c1-.21,2.1-.44,3.14-.68a.7.7,0,0,1,.82.29,16.47,16.47,0,0,1,2.19,3.79.69.69,0,0,1-.15.82c-.73.77-1.45,1.56-2.15,2.35a.62.62,0,0,0-.14.45,12.68,12.68,0,0,1,0,4.43.62.62,0,0,0,.14.45c.67.76,1.36,1.52,2.06,2.25a.84.84,0,0,1,.2,1.05,16.69,16.69,0,0,1-2.19,3.71.65.65,0,0,1-.74.26l-3.14-.7a.48.48,0,0,0-.47.11,11.83,11.83,0,0,1-3.83,2.21.49.49,0,0,0-.33.35c-.31,1-.65,2-.95,3a.71.71,0,0,1-.67.55,17.35,17.35,0,0,1-4.38,0,.64.64,0,0,1-.62-.52c-.28-1-.57-2-.85-3,0-.08-.05-.16-.08-.26-.62,0-1.23,0-1.83,0-.09,0-.22.14-.26.24A2.09,2.09,0,1,1,18,34.61a2,2,0,0,1,2.06,1.24.44.44,0,0,0,.5.32c.64,0,1.28,0,1.92,0a.57.57,0,0,1,.65.5c.28,1,.57,2,.84,3,.06.25.16.39.45.38h3.12a.35.35,0,0,0,.38-.3c.31-1,.63-2,.93-3a.77.77,0,0,1,.54-.55,10.84,10.84,0,0,0,4.08-2.35.87.87,0,0,1,.84-.19c1,.23,2,.43,3,.66.18,0,.29,0,.38-.13.55-1,1.09-1.89,1.65-2.83a.36.36,0,0,0-.08-.46c-.7-.75-1.39-1.52-2.1-2.27a.83.83,0,0,1-.22-.8,10.68,10.68,0,0,0,0-4.64.83.83,0,0,1,.24-.82c.71-.75,1.39-1.52,2.09-2.27.14-.15.17-.27.07-.43l-1.62-2.81a.33.33,0,0,0-.43-.17l-3,.67a.9.9,0,0,1-.92-.22,10.66,10.66,0,0,0-4-2.29.82.82,0,0,1-.58-.6c-.29-1-.62-2-.92-2.94a.34.34,0,0,0-.38-.3H24.4c-.23,0-.31.11-.37.31-.28,1-.57,2-.85,3-.12.4-.26.5-.68.5Zm-1-.52a1,1,0,1,0-1,1A1,1,0,0,0,19.25,14.31Zm-1,21.34a1,1,0,1,0,1,1A1,1,0,0,0,18.22,35.65Z"/><path class="cls-2" d="M14.52,31.22l-.15.34a2.08,2.08,0,1,1-2.29-2.9,2,2,0,0,1,2.29,1.2.47.47,0,0,0,.52.33h11a4.68,4.68,0,1,0-4.59-5.36,6,6,0,0,0-.06.61c0,.4-.2.58-.62.59s-.89,0-1.33,0a.38.38,0,0,0-.44.3,2.07,2.07,0,0,1-2.21,1.25,2.08,2.08,0,0,1-.34-4,2.07,2.07,0,0,1,2.54,1.14,2.88,2.88,0,0,1,.13.31h1.24a5.86,5.86,0,0,1,2.45-4.13H14.52A2.13,2.13,0,0,1,12,22.31a2.08,2.08,0,0,1,0-4c1.09-.26,1.9.21,2.55,1.5H25.82a5.72,5.72,0,0,1,.91,11.38,7.89,7.89,0,0,1-1,.06H14.52Zm-1-10.93a1,1,0,1,0-2.08,0,1,1,0,0,0,2.08,0Zm3.4,6.25a1.06,1.06,0,0,0,1-1,1,1,0,0,0-1-1,1,1,0,1,0,0,2.08Zm-4.44,5.2a1,1,0,1,0-1-1A1,1,0,0,0,12.48,31.74Z"/></svg>