<?xml version="1.0" encoding="utf-8"?>
<!-- Generator: Adobe Illustrator 19.0.0, SVG Export Plug-In . SVG Version: 6.00 Build 0)  -->
<svg version="1.1"
	 id="svg217" xmlns:dc="http://purl.org/dc/elements/1.1/" xmlns:cc="http://creativecommons.org/ns#" xmlns:rdf="http://www.w3.org/1999/02/22-rdf-syntax-ns#" xmlns:svg="http://www.w3.org/2000/svg" xmlns:sodipodi="http://sodipodi.sourceforge.net/DTD/sodipodi-0.dtd" xmlns:inkscape="http://www.inkscape.org/namespaces/inkscape" sodipodi:docname="SixPl.cdr"
	 xmlns="http://www.w3.org/2000/svg" xmlns:xlink="http://www.w3.org/1999/xlink" x="0px" y="0px"
	 viewBox="100.5 323.1 394.2 202.1" style="enable-background:new 100.5 323.1 394.2 202.1;" xml:space="preserve">
<style type="text/css">
	.st0{fill:#2D2E79;}
	.st1{fill:url(#path22_1_);}
	.st2{fill:url(#path32_1_);}
	.st3{fill:url(#path42_1_);}
	.st4{fill:url(#path52_1_);}
	.st5{fill:url(#path62_1_);}
	.st6{fill:url(#path72_1_);}
	.st7{fill:url(#path82_1_);}
	.st8{fill:url(#path92_1_);}
	.st9{fill:url(#path102_1_);}
	.st10{fill:url(#path112_1_);}
	.st11{fill:url(#path122_1_);}
	.st12{fill:url(#path132_1_);}
	.st13{fill:url(#path142_1_);}
	.st14{fill:url(#path152_1_);}
	.st15{fill:url(#path162_1_);}
	.st16{fill:url(#path172_1_);}
</style>
<sodipodi:namedview  guidetolerance="10" gridtolerance="10" objecttolerance="10" bordercolor="#666666" pagecolor="#ffffff" borderopacity="1" id="namedview219" inkscape:window-width="640" inkscape:pageopacity="0" inkscape:window-height="480" inkscape:pageshadow="2">
	</sodipodi:namedview>
<path id="path2" class="st0" d="M152.6,471.9c10.6,0,21.4-6.1,21.4-17.6c0-9-9.5-12.6-17.4-14.9l-8.6-2.7
	c-19.9-5.9-23.5-15.1-23.5-26c0-19.4,16.5-26.4,28.2-26.4c13.5,0,26.2,7.5,26.2,17.4c0,6.3-3.6,9.5-7.7,9.5c-4.3,0-7.7-3.6-7.7-7.7
	c0-3.2,2.3-6.1,5.2-7c-2.9-4.5-8.8-7-15.6-7c-12,0-20.1,6.3-20.1,16.9c0,7.5,5.9,11.1,13.8,13.5l9.9,2.9c16.7,4.7,26,12.2,26,27.3
	c0,17.2-13.8,27.3-30.9,27.3c-19.2,0-30.9-13.5-30.9-23c0-5.6,3.2-9,7.7-9c4.1,0,7.7,3.6,7.7,7.7c0,3.6-2.5,6.6-5.9,7.2
	C134.5,468,144,471.9,152.6,471.9L152.6,471.9z"/>
<path id="path4" class="st0" d="M218.5,359.4c-5,0-9-3.8-9-8.8c0-5,4.1-8.8,9-8.8c5,0,8.8,3.8,8.8,8.8
	C227.3,355.6,223.5,359.4,218.5,359.4L218.5,359.4z M239.7,475.5c-2.7,0-5.9-0.7-18.7-0.7h-5.2c-13.1,0-15.8,0.7-18.5,0.7
	c-1.1,0-2-0.9-2-2.5c0-1.4,0.9-2.3,2-2.3h14v-79.9c-6.5,0-12.6,0.2-14,0.2c-1.1,0-2-0.9-2-2.5c0-1.6,0.9-2.5,2-2.5
	c1.1,0,7,0.7,15.1,0.7c5.2,0,9-0.9,11.3-0.9c1.1,0,2,0.9,2,2.7l0,82.2h14c0.9,0,2,0.9,2,2.3C241.8,474.6,240.6,475.5,239.7,475.5
	L239.7,475.5z"/>
<path id="path6" class="st0" d="M326,475.5c-2.7,0-4.7-0.7-17.6-0.7h-2.3c-13.1,0-14.9,0.7-17.6,0.7c-0.9,0-2-0.9-2-2.5
	c0-1.4,1.1-2.3,2-2.3h10.6l-16.9-31.4L263,470.7h11.7c1.1,0,2,0.9,2,2.3c0,1.6-0.9,2.5-2,2.5c-2.5,0-3.2-0.7-14-0.7h-1.8
	c-11.7,0-11.3,0.7-14,0.7c-1.1,0-2-0.9-2-2.5c0-1.4,0.9-2.3,2-2.3h11.7l22.6-36.8L256,390.8c-4.7,0-7.9,0.2-10.4,0.2
	c-1.1,0-2-0.9-2-2.5c0-1.6,0.9-2.5,2-2.5c2.5,0,4.5,0.7,17.4,0.7h2.5c13.1,0,14.7-0.7,17.4-0.7c0.9,0,2,0.9,2,2.5
	c0,1.6-1.1,2.5-2,2.5c-2.3,0-3.8-0.2-10.6-0.2l16.5,30.5l18.5-30.5c-6.8,0-9.5,0.2-11.7,0.2c-1.1,0-2-0.9-2-2.5c0-1.6,0.9-2.5,2-2.5
	c2.7,0,3.2,0.7,14,0.7h1.8c11.7,0,11.3-0.7,14-0.7c1.1,0,2,0.9,2,2.5c0,1.6-0.9,2.5-2,2.5c-2.5,0-6.8-0.2-11.7-0.2l-21.9,35.9
	l23.7,44H326c0.9,0,1.8,0.9,1.8,2.3C327.8,474.6,326.9,475.5,326,475.5z"/>
<path id="path8" class="st0" d="M472.3,475.5c-2.7,0-5.9-0.7-18.7-0.7h-5.2c-13.1,0-15.8,0.7-18.5,0.7c-1.1,0-2-0.9-2-2.5
	c0-1.4,0.9-2.3,2-2.3h14V334.1c-6.8,0-12.6,0.2-14,0.2c-1.1,0-2-0.9-2-2.5c0-1.4,0.9-2.3,2-2.3c0.9,0,7.2,0.4,14.9,0.4
	c5.2,0,9.3-0.9,11.3-0.9c1.1,0,2,1.1,2,2.9v138.6h14.2c0.9,0,2,0.9,2,2.3C474.3,474.6,473.2,475.5,472.3,475.5L472.3,475.5z"/>
<linearGradient id="path22_1_" gradientUnits="userSpaceOnUse" x1="-0.7272" y1="842.7447" x2="-0.7272" y2="841.7447" gradientTransform="matrix(2.1693 -16.5675 -13.6963 -2.624 11936.5898 2587.4741)">
	<stop  offset="0" style="stop-color:#1B8BBB"/>
	<stop  offset="1" style="stop-color:#13A4C6"/>
</linearGradient>
<path id="path22" class="st1" d="M392.5,380.7v15.8c2.8-0.1,5.6,0.2,8.2,0.9l5.7-14.7c-4.1-1.3-8.4-2-12.7-2
	C393.3,380.7,392.9,380.7,392.5,380.7z"/>
<linearGradient id="path32_1_" gradientUnits="userSpaceOnUse" x1="-0.3954" y1="843.0844" x2="-0.3954" y2="842.0844" gradientTransform="matrix(-1.8786 -16.9891 -13.3667 2.3877 11647.5889 -1628.9016)">
	<stop  offset="0" style="stop-color:#1B8BBB"/>
	<stop  offset="1" style="stop-color:#13A4C6"/>
</linearGradient>
<path id="path32" class="st2" d="M379,383.4l6.4,14.4c2.3-0.8,4.7-1.2,7.1-1.3v-15.8C388,380.8,383.4,381.7,379,383.4L379,383.4z"/>
<linearGradient id="path42_1_" gradientUnits="userSpaceOnUse" x1="-0.6837" y1="842.7452" x2="-0.6837" y2="841.7452" gradientTransform="matrix(2.1682 -16.5672 -13.6896 -2.624 11919.4961 2651.8914)">
	<stop  offset="0" style="stop-color:#1B8BBB"/>
	<stop  offset="1" style="stop-color:#13A4C6"/>
</linearGradient>
<path id="path42" class="st3" d="M381,459.9c4.4,1.5,9.1,2.1,13.9,2l0-15.8c-2.8,0.1-5.6-0.2-8.2-1L381,459.9z"/>
<linearGradient id="path52_1_" gradientUnits="userSpaceOnUse" x1="-0.3557" y1="843.0847" x2="-0.3557" y2="842.0847" gradientTransform="matrix(-1.8782 -16.983 -13.3644 2.3868 11661.502 -1564.1371)">
	<stop  offset="0" style="stop-color:#1B8BBB"/>
	<stop  offset="1" style="stop-color:#13A4C6"/>
</linearGradient>
<path id="path52" class="st4" d="M394.9,446.1v15.8c4.5-0.1,9.1-1,13.5-2.7l-6.4-14.4C399.6,445.6,397.2,446,394.9,446.1z"/>
<linearGradient id="path62_1_" gradientUnits="userSpaceOnUse" x1="0.1431" y1="843.0698" x2="0.1431" y2="842.0698" gradientTransform="matrix(-9.8668 -16.2128 -14.6282 10.9357 12700.2188 -8816.0693)">
	<stop  offset="0" style="stop-color:#EF911D"/>
	<stop  offset="1" style="stop-color:#F9D822"/>
</linearGradient>
<path id="path62" class="st5" d="M364.1,393.3l11.2,11.2c1.9-2.1,4.1-3.8,6.5-5.1l-6.4-14.4C371.2,387.1,367.4,389.9,364.1,393.3
	L364.1,393.3z"/>
<linearGradient id="path72_1_" gradientUnits="userSpaceOnUse" x1="0.4354" y1="843.1748" x2="0.4354" y2="842.1748" gradientTransform="matrix(-15.2062 -10.0723 -11.048 13.8633 9683.4658 -11275.2324)">
	<stop  offset="0" style="stop-color:#EF911D"/>
	<stop  offset="1" style="stop-color:#F9D822"/>
</linearGradient>
<path id="path72" class="st6" d="M356.5,404.8l14.7,5.7c1.1-2.2,2.5-4.2,4.1-6l-11.2-11.2C361,396.6,358.4,400.5,356.5,404.8
	L356.5,404.8z"/>
<linearGradient id="path82_1_" gradientUnits="userSpaceOnUse" x1="-0.6096" y1="841.4667" x2="-0.6096" y2="840.4667" gradientTransform="matrix(16.2135 -9.8657 -10.9361 -14.6265 9574.9727 12735.8545)">
	<stop  offset="0" style="stop-color:#C0174F"/>
	<stop  offset="1" style="stop-color:#E01375"/>
</linearGradient>
<path id="path82" class="st7" d="M357.4,439.6c2.1,4.2,4.9,8,8.4,11.2l11.2-11.2c-2.1-1.9-3.8-4-5.1-6.5L357.4,439.6z"/>
<linearGradient id="path92_1_" gradientUnits="userSpaceOnUse" x1="-0.6866" y1="841.9245" x2="-0.6866" y2="840.9245" gradientTransform="matrix(11.0102 -14.4016 -13.1215 -12.0843 11423.4639 10606.1934)">
	<stop  offset="0" style="stop-color:#C0174F"/>
	<stop  offset="1" style="stop-color:#E01375"/>
</linearGradient>
<path id="path92" class="st8" d="M365.8,450.8c3.3,3.1,7.1,5.7,11.5,7.6l5.7-14.8c-2.2-1.1-4.2-2.4-6-4L365.8,450.8z"/>
<linearGradient id="path102_1_" gradientUnits="userSpaceOnUse" x1="1.2795" y1="843.2112" x2="1.2795" y2="842.2112" gradientTransform="matrix(-16.7508 -0.7259 -0.8779 13.8501 1122.7839 -11255.1416)">
	<stop  offset="0" style="stop-color:#CBC21F"/>
	<stop  offset="1" style="stop-color:#E5D412"/>
</linearGradient>
<path id="path102" class="st9" d="M353.1,422.5h15.8c-0.1-2.8,0.2-5.6,1-8.2l-14.7-5.7C353.6,413.1,353,417.8,353.1,422.5
	L353.1,422.5z"/>
<linearGradient id="path112_1_" gradientUnits="userSpaceOnUse" x1="1.609" y1="842.9434" x2="1.609" y2="841.9434" gradientTransform="matrix(-16.5646 3.4914 4.4385 13.0302 -3350.2346 -10553.6738)">
	<stop  offset="0" style="stop-color:#CBC21F"/>
	<stop  offset="1" style="stop-color:#E5D412"/>
</linearGradient>
<path id="path112" class="st10" d="M353.1,422.5c0.1,4.5,1,9.1,2.7,13.5l14.4-6.4c-0.8-2.3-1.2-4.7-1.3-7.1L353.1,422.5z"/>
<linearGradient id="path122_1_" gradientUnits="userSpaceOnUse" x1="0.7575" y1="840.7158" x2="0.7575" y2="839.7158" gradientTransform="matrix(9.6053 16.4017 14.7909 -10.6514 -12020.959 9383.9395)">
	<stop  offset="0" style="stop-color:#EF911D"/>
	<stop  offset="1" style="stop-color:#F9D822"/>
</linearGradient>
<path id="path122" class="st11" d="M405.6,443.2l6.4,14.4c4.2-2.1,8-4.9,11.2-8.4l-11.2-11.2C410.2,440.2,408,441.9,405.6,443.2
	L405.6,443.2z"/>
<linearGradient id="path132_1_" gradientUnits="userSpaceOnUse" x1="0.4192" y1="840.606" x2="0.4192" y2="839.606" gradientTransform="matrix(15.2162 10.0718 11.0552 -13.8627 -8873.5508 12081.874)">
	<stop  offset="0" style="stop-color:#EF911D"/>
	<stop  offset="1" style="stop-color:#F9D822"/>
</linearGradient>
<path id="path132" class="st12" d="M412.1,438.1l11.2,11.2c3.1-3.3,5.7-7.1,7.6-11.5l-14.8-5.7C415.1,434.4,413.7,436.4,412.1,438.1
	L412.1,438.1z"/>
<linearGradient id="path142_1_" gradientUnits="userSpaceOnUse" x1="-0.7331" y1="841.487" x2="-0.7331" y2="840.487" gradientTransform="matrix(16.0277 -10.1192 -11.2227 -14.4517 9869.1475 12547.4258)">
	<stop  offset="0" style="stop-color:#C0174F"/>
	<stop  offset="1" style="stop-color:#E01375"/>
</linearGradient>
<path id="path142" class="st13" d="M410.4,403c2.1,1.9,3.8,4.1,5.1,6.5l14.4-6.4c-2.1-4.2-4.9-8-8.4-11.2L410.4,403z"/>
<linearGradient id="path152_1_" gradientUnits="userSpaceOnUse" x1="-0.8196" y1="842.0558" x2="-0.8196" y2="841.0558" gradientTransform="matrix(9.5807 -15.5849 -14.204 -10.5122 12373.6152 9228.4502)">
	<stop  offset="0" style="stop-color:#C0174F"/>
	<stop  offset="1" style="stop-color:#E01375"/>
</linearGradient>
<path id="path152" class="st14" d="M404.4,398.9c2.2,1.1,4.2,2.5,5.9,4l11.2-11.2c-3.3-3.1-7.1-5.7-11.5-7.6L404.4,398.9z"/>
<linearGradient id="path162_1_" gradientUnits="userSpaceOnUse" x1="-0.185" y1="840.5048" x2="-0.185" y2="839.5048" gradientTransform="matrix(16.6229 1.9284 2.3362 -13.7211 -1533.731 11953.2158)">
	<stop  offset="0" style="stop-color:#CBC21F"/>
	<stop  offset="1" style="stop-color:#E5D412"/>
</linearGradient>
<path id="path162" class="st15" d="M418.5,420.1c0.1,2.8-0.2,5.6-1,8.2l14.8,5.7c1.5-4.4,2.1-9.1,2-13.9H418.5z"/>
<linearGradient id="path172_1_" gradientUnits="userSpaceOnUse" x1="-0.622" y1="840.7798" x2="-0.622" y2="839.7798" gradientTransform="matrix(16.7821 -2.8076 -3.5671 -13.2086 3432.9917 11510.6602)">
	<stop  offset="0" style="stop-color:#CBC21F"/>
	<stop  offset="1" style="stop-color:#E5D412"/>
</linearGradient>
<path id="path172" class="st16" d="M417.1,413.1c0.8,2.3,1.2,4.7,1.3,7.1h15.8c-0.1-4.5-1-9.1-2.7-13.5L417.1,413.1z"/>
<g>
	<path class="st0" d="M393.7,376.7c-13,0-24.8,5.6-33,14.6l0-15.4c0-1.8-0.9-2.9-2-2.9c-2,0-6.1,0.9-11.3,0.9
		c-7.7,0-14-0.4-14.9-0.4c-1.1,0-2,0.9-2,2.3c0,1.6,0.9,2.5,2,2.5c1.4,0,7.2-0.2,14-0.2v136.6h-14c-1.1,0-2,0.9-2,2.3
		c0,1.6,0.9,2.5,2,2.5c2.7,0,5.4-0.7,18.5-0.7h5.2c12.9,0,16,0.7,18.7,0.7c0.9,0,2-0.9,2-2.5c0-1.4-1.1-2.3-2-2.3h-14.2l0-63
		c8.2,8.9,19.9,14.6,33,14.6c24.6,0,44.7-20,44.7-44.6C438.3,396.7,418.3,376.7,393.7,376.7z M393.7,464
		c-23.5,0-42.7-19.1-42.7-42.6c0-23.5,19.1-42.7,42.7-42.7c23.5,0,42.6,19.1,42.7,42.7C436.3,444.8,417.2,464,393.7,464z"/>
	<path class="st0" d="M393.7,398.2c-12.7,0-23.1,10.3-23.1,23.1c0,12.7,10.3,23.1,23.1,23.1c12.7,0,23.1-10.3,23.1-23.1
		C416.8,408.6,406.4,398.2,393.7,398.2z"/>
</g>
</svg>
